<svg width="334" height="80" viewBox="0 0 334 80" fill="none" xmlns="http://www.w3.org/2000/svg">
<rect width="334" height="80"/>
<path d="M22.5 73C22.5 74.1046 23.3954 75 24.5 75H33.9C35.0045 75 35.9 74.1046 35.9 73V14H53.8C54.9046 14 55.8 13.1046 55.8 12V5.5C55.8 4.39543 54.9045 3.5 53.8 3.5H4.59998C3.49541 3.5 2.59998 4.39543 2.59998 5.5V12C2.59998 13.1046 3.49541 14 4.59998 14H22.5V73Z" fill="white"/>
<path d="M77.9812 76C90.422 76 98.984 70.8283 101.506 61.285C101.82 60.0994 100.875 59 99.6484 59H91.9592C90.9887 59 90.181 59.7069 89.8701 60.6262C88.4883 64.7119 84.7656 67 78.2812 67C69.2812 67 64.2812 61.4 63.8812 51.5H100.181C101.286 51.5 102.181 50.6046 102.181 49.5V48C102.181 29.3 90.4812 21.6 77.4812 21.6C62.5812 21.6 51.4812 32.4 51.4812 48.6V49.4C51.4812 65.9 62.5812 76 77.9812 76ZM64.0812 43.4C65.2812 35.3 70.1812 30.4 77.4812 30.4C84.9812 30.4 89.5812 34.4 90.1812 43.4H64.0812Z" fill="white"/>
<path d="M128.377 76C141.777 76 149.277 69.9 149.277 59.3C149.277 48.2 141.977 45.2 129.677 43.3C121.377 41.9 118.877 40.4 118.877 36.6C118.877 32.9 121.977 30.4 127.177 30.4C132.125 30.4 134.809 32.1176 136.057 35.8288C136.359 36.7267 137.156 37.4 138.104 37.4H145.445C146.636 37.4 147.573 36.3605 147.333 35.1935C145.261 25.0961 137.181 21.6 127.177 21.6C117.377 21.6 107.577 26.8 107.577 37.3C107.577 47.1 112.677 51 126.477 53.2C134.177 54.5 137.677 56.1 137.677 60.4C137.677 64.8 134.777 67.1 128.277 67.1C122.004 67.1 119.166 64.6802 118.176 60.4612C117.944 59.4706 117.108 58.7 116.091 58.7H108.569C107.43 58.7 106.51 59.6545 106.666 60.7837C108.018 70.573 115.747 76 128.377 76Z" fill="white"/>
<path d="M174.791 76C188.191 76 195.691 69.9 195.691 59.3C195.691 48.2 188.391 45.2 176.091 43.3C167.791 41.9 165.291 40.4 165.291 36.6C165.291 32.9 168.391 30.4 173.591 30.4C178.539 30.4 181.223 32.1176 182.471 35.8288C182.773 36.7267 183.57 37.4 184.518 37.4H191.859C193.05 37.4 193.987 36.3605 193.747 35.1935C191.675 25.0961 183.595 21.6 173.591 21.6C163.791 21.6 153.991 26.8 153.991 37.3C153.991 47.1 159.091 51 172.891 53.2C180.591 54.5 184.091 56.1 184.091 60.4C184.091 64.8 181.191 67.1 174.691 67.1C168.418 67.1 165.58 64.6802 164.59 60.4612C164.358 59.4706 163.523 58.7 162.505 58.7H154.983C153.844 58.7 152.924 59.6545 153.08 60.7837C154.432 70.573 162.161 76 174.791 76Z" fill="white"/>
<path d="M225.305 76C237.746 76 246.308 70.8283 248.831 61.285C249.144 60.0994 248.199 59 246.973 59H239.283C238.313 59 237.505 59.7069 237.194 60.6262C235.813 64.7119 232.09 67 225.605 67C216.605 67 211.605 61.4 211.205 51.5H247.505C248.61 51.5 249.505 50.6046 249.505 49.5V48C249.505 29.3 237.805 21.6 224.805 21.6C209.905 21.6 198.805 32.4 198.805 48.6V49.4C198.805 65.9 209.905 76 225.305 76ZM211.405 43.4C212.605 35.3 217.505 30.4 224.805 30.4C232.305 30.4 236.905 34.4 237.505 43.4H211.405Z" fill="white"/>
<path d="M255.313 73C255.313 74.1046 256.209 75 257.313 75H265.413C266.518 75 267.413 74.1046 267.413 73V47.8C267.413 37.4095 273.021 33.7661 282.433 33.2608C283.528 33.2019 284.413 32.316 284.413 31.2188V23.9229C284.413 22.8094 283.5 21.9008 282.391 21.9951C274.846 22.6361 270.451 26.4238 267.413 32.5V24.7C267.413 23.5954 266.518 22.7 265.413 22.7H257.313C256.209 22.7 255.313 23.5954 255.313 24.7V73Z" fill="white"/>
<path d="M302.759 76C310.759 76 315.359 73.1 318.759 68.6V73C318.759 74.1046 319.655 75 320.759 75H328.659C329.764 75 330.659 74.1046 330.659 73V40.7C330.659 26.4 321.459 21.6 309.759 21.6C298.773 21.6 289.55 26.097 287.638 36.7471C287.431 37.8978 288.361 38.9 289.53 38.9H297.277C298.293 38.9 299.125 38.1307 299.379 37.1469C300.438 33.0317 303.505 30.7 309.059 30.7C316.159 30.7 318.559 34.2 318.559 41.2V43.9H312.059C297.059 43.9 285.259 48.3 285.259 60.5C285.259 71.4 293.159 76 302.759 76ZM305.659 67.3C299.659 67.3 297.259 64.4 297.259 60C297.259 53.6 303.159 51.5 312.359 51.5H318.559V56.7C318.559 63.4 313.059 67.3 305.659 67.3Z" fill="white"/>
</svg>
